<?xml version="1.0" encoding="iso-8859-1"?>
<!-- Uploaded to: SVG Repo, www.svgrepo.com, Generator: SVG Repo Mixer Tools -->
<svg fill="#f24a6c" version="1.1" id="Layer_1" xmlns="http://www.w3.org/2000/svg" xmlns:xlink="http://www.w3.org/1999/xlink" 
	 viewBox="0 0 512 512" xml:space="preserve">
<rect x="10.199" y="156.435" style="fill:#dc2626;" width="491.602" height="199.129"/>
<rect x="44.876" y="190.307" style="fill:#dc2626;" width="337.594" height="131.376"/>
<path d="M501.801,365.764H10.199C4.567,365.764,0,361.197,0,355.565V156.435c0-5.632,4.567-10.199,10.199-10.199h491.602
	c5.632,0,10.199,4.567,10.199,10.199v199.129C512,361.198,507.433,365.764,501.801,365.764z M20.398,345.365h471.203V166.635H20.398
	V345.365z"/>
<path d="M471.203,334.534c-5.632,0-10.199-4.567-10.199-10.199v-80.574c0-5.632,4.567-10.199,10.199-10.199
	c5.632,0,10.199,4.567,10.199,10.199v80.574C481.402,329.967,476.835,334.534,471.203,334.534z"/>
<path d="M471.203,220.303c-5.632,0-10.199-4.567-10.199-10.199v-6.12c0-5.632,4.567-10.199,10.199-10.199
	c5.632,0,10.199,4.567,10.199,10.199v6.12C481.402,215.736,476.835,220.303,471.203,220.303z"/>
<path d="M382.47,331.887H44.876c-5.632,0-10.199-4.567-10.199-10.199V190.312c0-5.632,4.567-10.199,10.199-10.199H382.47
	c5.632,0,10.199,4.567,10.199,10.199v131.377C392.669,327.321,388.102,331.887,382.47,331.887z M55.076,311.489h317.195V200.511
	H55.076V311.489z"/>
</svg>